<svg xmlns="http://www.w3.org/2000/svg" xmlns:xlink="http://www.w3.org/1999/xlink" width="500" zoomAndPan="magnify" viewBox="0 0 375 374.999991" height="500" preserveAspectRatio="xMidYMid meet" version="1.0"><defs><clipPath id="bcf2997eb3"><path d="M 23.4375 1 L 351.9375 1 L 351.9375 374 L 23.4375 374 Z M 23.4375 1 " clip-rule="nonzero"/></clipPath></defs><g clip-path="url(#bcf2997eb3)"><path fill="#e44d26" d="M 53.574219 336.101562 L 23.730469 1.769531 L 351.644531 1.769531 L 321.769531 336.039062 L 187.484375 373.230469 Z M 53.574219 336.101562 " fill-opacity="1" fill-rule="nonzero"/></g><path fill="#f16529" d="M 187.6875 344.8125 L 296.199219 314.773438 L 321.722656 29.101562 L 187.6875 29.101562 Z M 187.6875 344.8125 " fill-opacity="1" fill-rule="nonzero"/><path fill="#ebebeb" d="M 187.6875 153.109375 L 133.359375 153.109375 L 129.609375 111.117188 L 187.6875 111.117188 L 187.6875 70.117188 L 84.753906 70.117188 L 85.730469 81.105469 L 95.816406 194.109375 L 187.6875 194.109375 Z M 187.6875 259.59375 L 187.5 259.640625 L 141.789062 247.304688 L 138.863281 214.601562 L 97.660156 214.601562 L 103.410156 278.988281 L 187.5 302.296875 L 187.6875 302.25 Z M 187.6875 259.59375 " fill-opacity="1" fill-rule="nonzero"/><path fill="#ffffff" d="M 187.546875 153.109375 L 187.546875 194.109375 L 238.09375 194.109375 L 233.320312 247.289062 L 187.53125 259.625 L 187.53125 302.28125 L 271.6875 278.988281 L 272.308594 272.054688 L 281.960938 164.097656 L 282.96875 153.09375 L 271.90625 153.09375 Z M 187.546875 70.117188 L 187.546875 111.117188 L 286.703125 111.117188 L 287.523438 101.894531 L 289.398438 81.105469 L 290.375 70.101562 Z M 187.546875 70.117188 " fill-opacity="1" fill-rule="nonzero"/></svg>