<svg xmlns="http://www.w3.org/2000/svg" xmlns:xlink="http://www.w3.org/1999/xlink" width="500" zoomAndPan="magnify" viewBox="0 0 375 374.999991" height="500" preserveAspectRatio="xMidYMid meet" version="1.0"><path fill="#ffc44d" d="M 13.953125 -0.871094 C 10.203125 -0.871094 6.628906 0.738281 4.148438 3.550781 C 1.664062 6.363281 0.507812 10.109375 0.972656 13.832031 L 35.855469 292.902344 C 36.398438 297.242188 39.074219 301.023438 42.988281 302.980469 L 182.523438 372.746094 C 186.203125 374.589844 190.539062 374.589844 194.222656 372.746094 L 333.757812 302.980469 C 337.667969 301.023438 340.34375 297.242188 340.886719 292.902344 L 375.769531 13.832031 C 376.238281 10.109375 375.082031 6.363281 372.597656 3.550781 C 370.113281 0.738281 366.542969 -0.871094 362.789062 -0.871094 Z M 13.953125 -0.871094 " fill-opacity="1" fill-rule="nonzero"/><path fill="#e5b045" d="M 188.371094 -0.871094 L 188.371094 374.128906 C 186.367188 374.128906 184.363281 373.667969 182.523438 372.746094 L 42.988281 302.980469 C 39.074219 301.023438 36.398438 297.242188 35.855469 292.902344 L 0.972656 13.832031 C 0.507812 10.109375 1.664062 6.363281 4.148438 3.550781 C 6.628906 0.738281 10.203125 -0.871094 13.953125 -0.871094 Z M 188.371094 -0.871094 " fill-opacity="1" fill-rule="evenodd"/><path fill="#cfd8dc" d="M 162.210938 51.453125 C 169.433594 51.453125 175.292969 57.308594 175.292969 64.535156 L 175.292969 291.277344 C 175.292969 295.941406 172.808594 300.253906 168.777344 302.59375 C 164.742188 304.933594 159.769531 304.949219 155.722656 302.636719 L 94.675781 267.753906 C 88.402344 264.167969 86.222656 256.175781 89.808594 249.90625 C 93.390625 243.632812 101.382812 241.453125 107.65625 245.039062 L 149.128906 268.738281 L 149.128906 64.535156 C 149.128906 57.308594 154.988281 51.453125 162.210938 51.453125 Z M 162.210938 51.453125 " fill-opacity="1" fill-rule="evenodd"/><path fill="#eceff1" d="M 201.457031 64.535156 C 201.457031 57.308594 207.3125 51.453125 214.539062 51.453125 L 301.746094 51.453125 C 308.972656 51.453125 314.828125 57.308594 314.828125 64.535156 C 314.828125 71.757812 308.972656 77.617188 301.746094 77.617188 L 227.621094 77.617188 L 227.621094 161.597656 L 290.1875 147.695312 C 294.265625 146.789062 298.53125 147.882812 301.664062 150.640625 C 304.800781 153.402344 306.433594 157.488281 306.054688 161.648438 L 297.332031 257.578125 C 296.921875 262.09375 294.207031 266.070312 290.15625 268.09375 L 220.386719 302.980469 C 213.925781 306.210938 206.070312 303.589844 202.835938 297.128906 C 199.605469 290.667969 202.226562 282.808594 208.6875 279.578125 L 271.9375 247.953125 L 278.378906 177.121094 L 217.375 190.675781 C 213.503906 191.539062 209.445312 190.59375 206.351562 188.109375 C 203.257812 185.628906 201.457031 181.875 201.457031 177.90625 Z M 201.457031 64.535156 " fill-opacity="1" fill-rule="evenodd"/></svg>