<svg xmlns="http://www.w3.org/2000/svg" xmlns:xlink="http://www.w3.org/1999/xlink" width="500" zoomAndPan="magnify" viewBox="0 0 375 374.999991" height="500" preserveAspectRatio="xMidYMid meet" version="1.0"><defs><clipPath id="3eeba46371"><path d="M 3.894531 24 L 371.394531 24 L 371.394531 351 L 3.894531 351 Z M 3.894531 24 " clip-rule="nonzero"/></clipPath></defs><g clip-path="url(#3eeba46371)"><path fill="#00d8ff" d="M 305.921875 130.074219 C 302.011719 128.734375 298.070312 127.492188 294.097656 126.347656 C 294.765625 123.625 295.378906 120.933594 295.925781 118.289062 C 304.875 74.867188 299.023438 39.886719 279.039062 28.367188 C 259.875 17.324219 228.535156 28.839844 196.882812 56.367188 C 193.761719 59.085938 190.710938 61.882812 187.734375 64.753906 C 185.742188 62.84375 183.710938 60.96875 181.648438 59.136719 C 148.476562 29.703125 115.226562 17.296875 95.261719 28.847656 C 76.113281 39.921875 70.445312 72.808594 78.503906 113.960938 C 79.304688 118.035156 80.210938 122.089844 81.21875 126.121094 C 76.511719 127.457031 71.972656 128.878906 67.625 130.394531 C 28.730469 143.945312 3.894531 165.179688 3.894531 187.207031 C 3.894531 209.957031 30.558594 232.777344 71.066406 246.613281 C 74.351562 247.730469 77.664062 248.765625 80.996094 249.71875 C 79.914062 254.058594 78.953125 258.429688 78.113281 262.824219 C 70.429688 303.261719 76.429688 335.367188 95.523438 346.375 C 115.246094 357.738281 148.347656 346.058594 180.578125 317.902344 C 183.191406 315.613281 185.746094 313.261719 188.242188 310.84375 C 191.46875 313.953125 194.777344 316.972656 198.171875 319.898438 C 229.394531 346.746094 260.226562 357.585938 279.304688 346.550781 C 299.007812 335.152344 305.410156 300.65625 297.097656 258.691406 C 296.441406 255.40625 295.707031 252.132812 294.894531 248.882812 C 297.21875 248.191406 299.5 247.484375 301.722656 246.746094 C 343.835938 232.804688 371.234375 210.261719 371.234375 187.207031 C 371.234375 165.101562 345.597656 143.722656 305.921875 130.074219 Z M 296.789062 231.863281 C 294.78125 232.527344 292.71875 233.167969 290.617188 233.792969 C 285.96875 219.082031 279.695312 203.445312 272.019531 187.285156 C 279.34375 171.511719 285.375 156.070312 289.894531 141.460938 C 293.652344 142.546875 297.300781 143.691406 300.816406 144.902344 C 334.808594 156.597656 355.542969 173.886719 355.542969 187.207031 C 355.542969 201.398438 333.148438 219.820312 296.789062 231.863281 Z M 281.703125 261.738281 C 285.378906 280.292969 285.902344 297.070312 283.46875 310.1875 C 281.28125 321.972656 276.878906 329.832031 271.4375 332.976562 C 259.863281 339.675781 235.105469 330.96875 208.40625 308.011719 C 205.25 305.289062 202.171875 302.484375 199.171875 299.59375 C 209.523438 288.28125 219.867188 275.128906 229.964844 260.523438 C 247.722656 258.949219 264.5 256.371094 279.714844 252.859375 C 280.445312 255.800781 281.109375 258.761719 281.703125 261.738281 Z M 129.128906 331.820312 C 117.820312 335.8125 108.8125 335.925781 103.367188 332.789062 C 91.777344 326.109375 86.960938 300.328125 93.53125 265.746094 C 94.3125 261.660156 95.207031 257.597656 96.214844 253.558594 C 111.261719 256.886719 127.914062 259.277344 145.714844 260.722656 C 155.878906 275.015625 166.523438 288.152344 177.25 299.652344 C 174.96875 301.859375 172.636719 304.007812 170.25 306.09375 C 156 318.546875 141.714844 327.378906 129.128906 331.820312 Z M 76.144531 231.773438 C 58.230469 225.65625 43.4375 217.707031 33.300781 209.027344 C 24.1875 201.230469 19.589844 193.488281 19.589844 187.207031 C 19.589844 173.839844 39.53125 156.792969 72.789062 145.203125 C 76.828125 143.796875 81.050781 142.472656 85.433594 141.226562 C 90.03125 156.167969 96.0625 171.792969 103.339844 187.589844 C 95.96875 203.621094 89.851562 219.496094 85.210938 234.613281 C 82.164062 233.742188 79.140625 232.796875 76.144531 231.773438 Z M 93.90625 110.949219 C 87 75.691406 91.585938 49.09375 103.125 42.421875 C 115.414062 35.308594 142.585938 45.445312 171.230469 70.863281 C 173.097656 72.523438 174.933594 74.21875 176.742188 75.945312 C 166.070312 87.398438 155.523438 100.4375 145.449219 114.648438 C 128.171875 116.246094 111.636719 118.816406 96.429688 122.257812 C 95.492188 118.511719 94.652344 114.742188 93.90625 110.949219 Z M 252.359375 150.050781 C 248.769531 143.851562 245.042969 137.730469 241.1875 131.691406 C 252.910156 133.171875 264.136719 135.136719 274.683594 137.542969 C 271.519531 147.683594 267.574219 158.285156 262.925781 169.152344 C 259.53125 162.714844 256.007812 156.347656 252.359375 150.050781 Z M 187.742188 87.152344 C 194.980469 94.992188 202.230469 103.738281 209.359375 113.234375 C 194.894531 112.550781 180.40625 112.546875 165.941406 113.222656 C 173.078125 103.820312 180.390625 95.082031 187.742188 87.152344 Z M 122.710938 150.15625 C 119.105469 156.402344 115.648438 162.734375 112.339844 169.140625 C 107.769531 158.308594 103.859375 147.660156 100.667969 137.375 C 111.148438 135.03125 122.324219 133.117188 133.972656 131.660156 C 130.074219 137.738281 126.316406 143.902344 122.710938 150.15625 Z M 134.304688 243.871094 C 122.273438 242.527344 110.929688 240.710938 100.449219 238.433594 C 103.695312 227.964844 107.691406 217.085938 112.359375 206.023438 C 115.679688 212.4375 119.152344 218.769531 122.769531 225.019531 C 126.492188 231.441406 130.347656 237.734375 134.304688 243.871094 Z M 188.175781 288.367188 C 180.738281 280.347656 173.316406 271.476562 166.074219 261.933594 C 173.105469 262.210938 180.277344 262.351562 187.566406 262.351562 C 195.054688 262.351562 202.453125 262.183594 209.738281 261.859375 C 202.585938 271.574219 195.363281 280.457031 188.175781 288.367188 Z M 263.074219 205.460938 C 267.984375 216.644531 272.125 227.464844 275.410156 237.75 C 264.757812 240.179688 253.261719 242.136719 241.144531 243.589844 C 245.027344 237.4375 248.785156 231.210938 252.421875 224.910156 C 256.117188 218.507812 259.667969 212.019531 263.074219 205.460938 Z M 238.828125 217.074219 C 233.265625 226.734375 227.386719 236.210938 221.207031 245.488281 C 210.011719 246.28125 198.789062 246.675781 187.566406 246.667969 C 176.132812 246.667969 165.015625 246.3125 154.308594 245.621094 C 147.964844 236.363281 141.976562 226.871094 136.351562 217.160156 C 130.753906 207.503906 125.527344 197.636719 120.679688 187.582031 C 125.515625 177.527344 130.726562 167.65625 136.304688 157.988281 L 136.304688 157.992188 C 141.878906 148.324219 147.820312 138.871094 154.117188 129.65625 C 165.039062 128.828125 176.242188 128.398438 187.5625 128.398438 L 187.566406 128.398438 C 198.9375 128.398438 210.15625 128.832031 221.078125 129.664062 C 227.308594 138.867188 233.210938 148.289062 238.777344 157.90625 C 244.371094 167.550781 249.65625 177.375 254.613281 187.359375 C 249.707031 197.449219 244.441406 207.359375 238.828125 217.074219 Z M 271.199219 41.953125 C 283.5 49.042969 288.285156 77.632812 280.554688 115.121094 C 280.0625 117.515625 279.507812 119.949219 278.90625 122.421875 C 263.664062 118.90625 247.113281 116.292969 229.789062 114.667969 C 219.695312 100.300781 209.234375 87.242188 198.734375 75.9375 C 201.488281 73.285156 204.304688 70.707031 207.183594 68.195312 C 234.304688 44.609375 259.652344 35.296875 271.199219 41.953125 Z M 187.566406 154.429688 C 205.679688 154.429688 220.367188 169.105469 220.367188 187.207031 C 220.367188 205.3125 205.679688 219.988281 187.566406 219.988281 C 169.449219 219.988281 154.761719 205.3125 154.761719 187.207031 C 154.761719 169.105469 169.449219 154.429688 187.566406 154.429688 Z M 187.566406 154.429688 " fill-opacity="1" fill-rule="nonzero"/></g></svg>